<svg width="32" height="32" viewBox="0 0 32 32" fill="none" xmlns="http://www.w3.org/2000/svg">
<circle cx="16" cy="16" r="16" fill="white"/>
<g clip-path="url(#clip0)">
<path d="M8.27814 22.6535H8.23697C7.86378 22.6536 7.49654 22.5601 7.16875 22.3817C6.84096 22.2033 6.56308 21.9457 6.36046 21.6323C6.15784 21.3189 6.03694 20.9597 6.0088 20.5876C5.98066 20.2155 6.04618 19.8422 6.19936 19.5019L10.3338 10.3172C10.5032 9.94106 10.7734 9.61911 11.1146 9.3871C11.4557 9.15508 11.8544 9.02204 12.2665 9.00272C12.6787 8.98341 13.0881 9.07858 13.4494 9.27767C13.8108 9.47677 14.1099 9.77202 14.3138 10.1307C14.4869 10.4351 14.5859 10.7759 14.6029 11.1256C14.6198 11.4754 14.5543 11.8242 14.4116 12.1439L10.3196 21.3286C10.1435 21.7229 9.85708 22.0579 9.49482 22.293C9.13257 22.5281 8.71 22.6533 8.27814 22.6535ZM18.2642 21.3286L22.3575 12.1439C22.5002 11.8242 22.5658 11.4754 22.5488 11.1256C22.5318 10.7759 22.4328 10.4351 22.2597 10.1307V10.1307C22.0559 9.77202 21.7567 9.47677 21.3953 9.27767C21.034 9.07858 20.6246 8.98341 20.2124 9.00272C19.8003 9.02204 19.4016 9.15508 19.0605 9.3871C18.7193 9.61911 18.4491 9.94106 18.2797 10.3172L14.1453 19.5019C13.9921 19.8422 13.9266 20.2155 13.9547 20.5876C13.9829 20.9597 14.1038 21.3189 14.3064 21.6323C14.509 21.9457 14.7869 22.2033 15.1147 22.3817C15.4424 22.5601 15.8097 22.6536 16.1829 22.6535H16.224C16.6558 22.6534 17.0782 22.5282 17.4403 22.293C17.8023 22.0579 18.0885 21.7229 18.2642 21.3286ZM26.2114 21.3286L26.8057 19.992C26.9471 19.6741 27.0121 19.3275 26.9956 18.9799C26.979 18.6324 26.8814 18.2935 26.7105 17.9904L26.6912 17.9557C26.4891 17.5945 26.1906 17.2966 25.829 17.0951C25.4674 16.8936 25.057 16.7965 24.6435 16.8147C24.2299 16.8328 23.8296 16.9655 23.487 17.1978C23.1445 17.4302 22.8732 17.7531 22.7035 18.1307L22.086 19.5019C21.9329 19.8422 21.8673 20.2155 21.8955 20.5876C21.9236 20.9597 22.0445 21.3189 22.2471 21.6323C22.4498 21.9457 22.7276 22.2033 23.0554 22.3817C23.3832 22.5601 23.7505 22.6536 24.1236 22.6535H24.1648C24.5976 22.6543 25.0212 22.5295 25.3845 22.2944C25.7477 22.0592 26.035 21.7237 26.2114 21.3286Z" fill="url(#paint0_linear)"/>
<path style="mix-blend-mode:overlay" opacity="0.49" d="M11.7013 18.2258L14.4117 12.1439C14.5545 11.8242 14.62 11.4754 14.603 11.1256C14.586 10.7759 14.487 10.4351 14.3139 10.1307V10.1307C14.1101 9.77202 13.8109 9.47677 13.4496 9.27767C13.0882 9.07858 12.6788 8.98341 12.2667 9.00272C11.8546 9.02204 11.4559 9.15508 11.1147 9.3871C10.7736 9.61911 10.5033 9.94106 10.3339 10.3172L8.9292 13.438C10.6092 14.8556 11.3643 16.7298 11.7013 18.2258Z" fill="url(#paint1_linear)"/>
<path style="mix-blend-mode:overlay" opacity="0.55" d="M16.6562 13.9229L14.1452 19.5019C13.992 19.8422 13.9265 20.2155 13.9546 20.5876C13.9827 20.9597 14.1036 21.3189 14.3063 21.6323C14.5089 21.9457 14.7868 22.2033 15.1145 22.3817C15.4423 22.5601 15.8096 22.6536 16.1828 22.6535H16.2239C16.6558 22.6533 17.0784 22.5281 17.4406 22.293C17.8029 22.0579 18.0893 21.7229 18.2654 21.3286L19.2225 19.1803C17.3894 17.5531 16.8144 15.4319 16.6562 13.9229Z" fill="url(#paint2_linear)"/>
<path style="mix-blend-mode:overlay" opacity="0.55" d="M26.695 17.9557C26.5419 17.6823 26.333 17.4441 26.082 17.2566C25.8309 17.0691 25.5433 16.9364 25.2376 16.8671C24.932 16.7979 24.6153 16.7936 24.3079 16.8546C24.0005 16.9156 23.7094 17.0405 23.4534 17.2212C24.7513 18.6812 25.3019 20.7073 25.5334 22.1879C25.8275 21.9624 26.0605 21.667 26.2113 21.3286L26.8057 19.992C26.947 19.6741 27.012 19.3275 26.9955 18.9799C26.9789 18.6324 26.8813 18.2935 26.7105 17.9904L26.695 17.9557Z" fill="url(#paint3_linear)"/>
<path style="mix-blend-mode:overlay" opacity="0.49" d="M14.3137 10.1307C14.0739 9.70435 13.7001 9.36901 13.2503 9.17667C12.8005 8.98433 12.2998 8.94574 11.8259 9.06689C11.7744 11.4878 12.6582 13.5023 13.3013 14.6356L14.4115 12.1439C14.5542 11.8242 14.6198 11.4754 14.6028 11.1256C14.5858 10.7759 14.4868 10.4351 14.3137 10.1307V10.1307Z" fill="url(#paint4_linear)"/>
</g>
<defs>
<linearGradient id="paint0_linear" x1="5.99997" y1="15.8268" x2="27" y2="15.8268" gradientUnits="userSpaceOnUse">
<stop stop-color="#0043A9"/>
<stop offset="0.15" stop-color="#1140AA"/>
<stop offset="0.45" stop-color="#3C38AC"/>
<stop offset="0.85" stop-color="#822CAF"/>
<stop offset="1" stop-color="#9C27B0"/>
</linearGradient>
<linearGradient id="paint1_linear" x1="8.9292" y1="13.6129" x2="14.606" y2="13.6129" gradientUnits="userSpaceOnUse">
<stop stop-color="white"/>
<stop offset="0.1" stop-color="white" stop-opacity="0.93"/>
<stop offset="0.31" stop-color="white" stop-opacity="0.74"/>
<stop offset="0.61" stop-color="white" stop-opacity="0.44"/>
<stop offset="0.98" stop-color="white" stop-opacity="0.03"/>
<stop offset="1" stop-color="white" stop-opacity="0"/>
</linearGradient>
<linearGradient id="paint2_linear" x1="13.9458" y1="18.2876" x2="19.2225" y2="18.2876" gradientUnits="userSpaceOnUse">
<stop stop-opacity="0"/>
<stop offset="1"/>
</linearGradient>
<linearGradient id="paint3_linear" x1="504.388" y1="455.658" x2="602.114" y2="455.658" gradientUnits="userSpaceOnUse">
<stop stop-opacity="0"/>
<stop offset="1"/>
</linearGradient>
<linearGradient id="paint4_linear" x1="167.849" y1="255.996" x2="167.849" y2="8.99765" gradientUnits="userSpaceOnUse">
<stop stop-color="white"/>
<stop offset="0.1" stop-color="white" stop-opacity="0.93"/>
<stop offset="0.31" stop-color="white" stop-opacity="0.74"/>
<stop offset="0.61" stop-color="white" stop-opacity="0.44"/>
<stop offset="0.98" stop-color="white" stop-opacity="0.03"/>
<stop offset="1" stop-color="white" stop-opacity="0"/>
</linearGradient>
<clipPath id="clip0">
<rect width="21" height="13.6535" fill="white" transform="translate(6 9)"/>
</clipPath>
</defs>
</svg>
